<?xml version="1.0" standalone="no"?><!DOCTYPE svg PUBLIC "-//W3C//DTD SVG 1.1//EN" "http://www.w3.org/Graphics/SVG/1.1/DTD/svg11.dtd"><svg t="1723016429805" class="icon" viewBox="0 0 1024 1024" version="1.1" xmlns="http://www.w3.org/2000/svg" p-id="1572" xmlns:xlink="http://www.w3.org/1999/xlink" width="200" height="200"><path d="M478.715 33.884C402.955 70.544 355.599 151.2 363.889 228.71c8.284 67.037 43.801 120.459 104.171 156.068C655.1 494.761 887.117 305.172 784.128 126.06 722.575 20.265 591.176-19.538 478.715 33.884z m187.039 67.036c85.232 52.373 80.496 188.54-9.472 229.392-104.172 48.184-213.08-15.714-213.08-125.696 0-41.897 5.92-54.467 40.249-84.844s48.537-35.615 98.253-35.615c33.147 0.006 68.659 7.337 84.05 16.763z" fill="#707070" p-id="1573"></path><path d="M797.153 340.787c-63.923 115.22-89.968 148.736-164.546 217.872-75.76 71.224-105.355 90.08-209.531 135.121-67.477 29.328-132.583 50.279-147.973 48.185-22.492-2.094-36.695-25.14-88.786-139.31C120.028 458.102 53.74 333.455 25.329 298.89c-16.574-19.9-17.757-18.852-11.839 10.476C40.714 465.434 133.053 774.43 161.464 803.758c15.391 17.807 295.947 18.852 456.94 2.094 190.587-19.901 170.465-27.233-121.928-47.135l-106.542-7.331 102.989-24.09c114.826-27.233 177.567-52.372 261.617-105.795 31.964-19.901 62.74-34.565 69.841-32.47 5.92 2.093 49.72 98.462 94.705 212.633 46.167 115.22 86.415 212.634 91.151 216.822 11.838 11.52-8.284-233.58-28.41-358.226-10.655-60.754-39.066-187.495-63.924-282.814l-44.984-172.83-75.766 136.171z" fill="#707070" p-id="1574"></path></svg>