<?xml version="1.0" standalone="no"?><!DOCTYPE svg PUBLIC "-//W3C//DTD SVG 1.1//EN" "http://www.w3.org/Graphics/SVG/1.1/DTD/svg11.dtd"><svg t="1723016424779" class="icon" viewBox="0 0 1024 1024" version="1.1" xmlns="http://www.w3.org/2000/svg" p-id="1417" xmlns:xlink="http://www.w3.org/1999/xlink" width="200" height="200"><path d="M901.12 268.288c9.216 5.12 16.384 17.408 16.384 27.648v430.08c0 10.24-7.168 22.528-16.384 27.648L771.072 829.44c-9.216 5.12-16.384 1.024-16.384-9.216V399.36c0-10.24-7.168-22.528-16.384-27.648L608.256 296.96c-9.216-5.12-16.384-1.024-16.384 9.216v106.496c0 10.24-8.192 18.432-18.432 18.432H449.536c-10.24 0-18.432-8.192-18.432-18.432V16.384c0-10.24 7.168-14.336 16.384-9.216L901.12 268.288zM431.104 611.328c0-10.24 8.192-18.432 18.432-18.432h124.928c10.24 0 18.432 8.192 18.432 18.432v396.288c0 10.24-7.168 14.336-16.384 9.216L122.88 754.688c-9.216-5.12-16.384-17.408-16.384-27.648V296.96c0-10.24 7.168-22.528 16.384-27.648L252.928 194.56c9.216-5.12 16.384-1.024 16.384 9.216V624.64c0 10.24 7.168 22.528 16.384 27.648L414.72 727.04c9.216 5.12 16.384 1.024 16.384-9.216V611.328z" p-id="1418"></path></svg>